<svg width="16" height="16" viewBox="0 0 16 16" fill="none" xmlns="http://www.w3.org/2000/svg">
<path d="M11.5029 9C11.3339 9 11.1659 9.014 10.9999 9.041V9C10.9999 8.455 10.8559 7.934 10.5839 7.478C11.7569 5.404 12.3779 4.291 12.5299 3.987C12.7349 3.576 12.9919 3.065 12.9999 2.498C13.0079 1.935 12.7629 1.348 12.3429 0.927L11.4139 0H10.3819L7.99988 4.764L5.61788 0H4.58888L3.65088 0.928C3.45288 1.125 2.99288 1.673 2.99988 2.475C3.00288 3.064 3.27988 3.619 3.46388 3.987C3.61888 4.296 4.27388 5.471 5.41488 7.479C5.14488 7.936 4.99988 8.456 4.99988 9V9.04C4.83488 9.014 4.66788 9 4.50088 9C2.60388 9 0.999878 10.604 0.999878 12.5C0.999878 14.396 2.60388 16 4.50088 16C6.36488 16 7.99988 14.364 7.99988 12.5C7.99988 12.332 7.99988 12.332 7.99988 12.5C7.99988 14.396 9.60488 16 11.5029 16C13.3989 16 14.9999 14.396 14.9999 12.5C14.9999 10.604 13.3989 9 11.5029 9Z" fill="#F6F6F6"/>
<path d="M11.4932 14C10.6672 14 10.0002 13.341 10.0002 12.512C10.0002 11.682 10.6672 11 11.4932 11C12.3202 11 13.0002 11.682 13.0002 12.512C13.0002 13.341 12.3202 14 11.4932 14ZM8.00218 10C7.44918 10 7.00018 9.553 7.00018 9C7.00018 8.448 7.44718 8 8.00018 8C8.55318 8 9.00018 8.448 9.00018 9C9.00018 9.553 8.55318 10 8.00218 10ZM4.48818 14C3.65818 14 3.00018 13.352 3.00018 12.523C3.00018 11.693 3.65818 11 4.48818 11C5.31418 11 6.00018 11.693 6.00018 12.523C6.00018 13.352 5.31418 14 4.48818 14ZM11.5032 10C11.0832 10 10.6842 10.127 10.3282 10.328L9.82018 9.82C9.93318 9.57 10.0002 9.293 10.0002 9C10.0002 8.436 9.76318 7.927 9.38618 7.562C10.3282 5.9 11.4392 3.932 11.6362 3.54C11.8062 3.198 11.9952 2.821 12.0002 2.484C12.0052 2.127 11.8152 1.815 11.6362 1.635L11.0002 1L8.00018 7L5.00018 1L4.35818 1.635C4.18018 1.812 3.99718 2.119 4.00018 2.469C4.00218 2.811 4.18518 3.193 4.35818 3.54C4.55518 3.932 5.66818 5.901 6.61318 7.564C6.23618 7.928 6.00018 8.436 6.00018 9C6.00018 9.293 6.06618 9.569 6.18018 9.82L5.67318 10.328C5.31618 10.127 4.91918 10 4.50118 10C3.17018 10 2.00018 11.172 2.00018 12.5C2.00018 13.828 3.17018 15 4.50118 15C5.82818 15 7.00018 13.828 7.00018 12.5C7.00018 12.081 6.87418 11.684 6.67318 11.328L7.18018 10.82C7.43118 10.934 7.70818 11 8.00118 11C8.29418 11 8.57018 10.934 8.82018 10.82L9.32718 11.328C9.12618 11.684 9.00018 12.081 9.00018 12.5C9.00018 13.828 10.1722 15 11.5032 15C12.8342 15 14.0002 13.828 14.0002 12.5C14.0002 11.172 12.8342 10 11.5032 10Z" fill="#414141"/>
<path d="M13 12.5117C13 11.6817 12.32 10.9997 11.493 10.9997C10.667 10.9997 10 11.6817 10 12.5117C10 13.3407 10.667 13.9997 11.493 13.9997C12.32 13.9997 13 13.3407 13 12.5117ZM9 8.99969C9 8.44869 8.553 7.99969 8 7.99969C7.447 7.99969 7 8.44869 7 8.99969C7 9.55269 7.449 9.99969 8.002 9.99969C8.553 9.99969 9 9.55269 9 8.99969ZM4.488 13.9997C3.658 13.9997 3 13.3517 3 12.5237C3 11.6937 3.658 10.9997 4.488 10.9997C5.314 10.9997 6 11.6937 6 12.5237C6 13.3517 5.314 13.9997 4.488 13.9997Z" fill="#F0EFF1"/>
</svg>
