<svg width="16" height="16" viewBox="0 0 16 16" fill="none" xmlns="http://www.w3.org/2000/svg">
<path d="M10.0605 1H3.99951C3.03051 1 1.99951 1.701 1.99951 3V11.586L-0.000488281 13.586V14.414L1.58551 16H2.41451L3.48751 14.927C3.65651 14.971 3.82851 15 3.99951 15H11.9995C13.2985 15 13.9995 13.97 13.9995 13V4.556L10.0605 1Z" fill="#F6F6F6"/>
<path d="M4.41412 14H5.50012C5.17812 14 4.86012 13.954 4.55112 13.863L4.41412 14Z" fill="#414141"/>
<path d="M9.64057 2H3.96357C3.96357 2 2.99957 2 2.99957 3V8.069C3.28657 7.777 3.62657 7.543 3.99957 7.365V3H8.99957V6H11.9996V13H7.94157C7.31057 13.616 6.45057 14 5.49957 14H11.9646C12.9646 14 12.9996 13 12.9996 13V5L9.64057 2Z" fill="#414141"/>
<path d="M5.5 12C4.672 12 4 11.328 4 10.5C4 9.67201 4.672 9.00001 5.5 9.00001C6.328 9.00001 7 9.67201 7 10.5C7 11.328 6.328 12 5.5 12ZM5.5 8.01601C4.119 8.01601 3 9.11901 3 10.5C3 10.932 3.12 11.332 3.312 11.687L1 14L2 15L4.312 12.688C4.667 12.881 5.067 13 5.5 13C6.881 13 8 11.881 8 10.5C8 9.11901 6.881 8.01601 5.5 8.01601Z" fill="#00529C"/>
<path d="M9 6V3H4V7.365C4.457 7.147 4.961 7.016 5.5 7.016C7.43 7.016 9 8.579 9 10.5C9 11.479 8.593 12.364 7.942 13H12V6H9Z" fill="#F0EFF1"/>
<path d="M4.04932 10.4473C4.04932 11.2753 4.72132 11.9473 5.54932 11.9473C6.37732 11.9473 7.04932 11.2753 7.04932 10.4473C7.04932 9.6193 6.37732 8.9473 5.54932 8.9473C4.72132 8.9473 4.04932 9.6193 4.04932 10.4473Z" fill="#F0EFF1"/>
</svg>
