<svg width="16" height="16" viewBox="0 0 16 16" fill="none" xmlns="http://www.w3.org/2000/svg">
<path d="M0 8C0 3.582 3.582 0 8 0C12.418 0 16 3.582 16 8C16 12.418 12.418 16 8 16C3.582 16 0 12.418 0 8Z" fill="#F6F6F6"/>
<path d="M8 1C4.134 1 1 4.134 1 8C1 11.865 4.134 15 8 15C11.866 15 15 11.865 15 8C15 4.134 11.866 1 8 1ZM9 13H7V11H9V13ZM11 7C11 8.104 10.102 9 9 9V10H7V9C7 7.896 7.897 7 9 7V5.203C8.841 5.115 8.495 5 8 5C7.505 5 7.159 5.115 7 5.203V6H5V5C5 3.841 6.262 3 8 3C9.738 3 11 3.841 11 5V7Z" fill="#1BA1E2"/>
<path d="M9 10H7V9C7 7.896 7.897 7 9 7V5.203C8.841 5.115 8.495 5 8 5C7.505 5 7.159 5.115 7 5.203V6H5V5C5 3.841 6.262 3 8 3C9.738 3 11 3.841 11 5V7C11 8.104 10.102 9 9 9V10ZM9 11H7V13H9V11Z" fill="white"/>
</svg>
