<svg width="16" height="16" viewBox="0 0 16 16" fill="none" xmlns="http://www.w3.org/2000/svg">
<path d="M15 5.52V13C15 13.97 14.299 15 13 15H7C6.03 15 5 14.299 5 13V9H3V8.121L2.379 8.742L0.257 6.621L0.878 6H0V3H0.878L0.257 2.379L2.379 0.257L3 0.878V0H6V0.878L6.621 0.256L8.742 2.378L8.121 3H12.069L15 5.52Z" fill="#F6F6F6"/>
<path d="M14 6.136V13C14 13 13.965 14 12.965 14H6.965C6.965 14 6 14 6 13V8.145L6.598 8.743L7 8.34V13H13V7H11V5H9V4H11.625L14 6.136Z" fill="#424242"/>
<path d="M13 7V13H7V8.363L8.742 6.621L8.121 6H9V5H11V7H13Z" fill="#F0EFF1"/>
<path d="M8 4H5.707L7.328 2.379L6.621 1.671L5 3.292V1H4V3.292L2.379 1.671L1.671 2.379L3.292 4H1V5H3.292L1.671 6.621L2.379 7.328L4 5.707V8H5V5.707L6.621 7.328L7.328 6.621L5.707 5H8V4ZM5 5H4V4H5V5Z" fill="#C27D1A"/>
</svg>
