<svg width="16" height="16" viewBox="0 0 16 16" fill="none" xmlns="http://www.w3.org/2000/svg">
<path d="M14 3H9.397L6.416 0H1.597L3.584 2H3.5C1.57 2 0 3.57 0 5.5C0 6.258 0.247 6.985 0.713 7.604C0.799 7.716 0.904 7.804 1 7.904V9H0V10.196L2.323 16H14C14 16 14.86 15.979 15.43 15.435C15.773 15.103 16 14.617 16 14V5C16 3.697 14.995 3 14 3Z" fill="#F6F6F6"/>
<path d="M3 10V8.942C2.651 8.891 2.313 8.805 2 8.654V10H1L3 15H14L11 10H3Z" fill="#DCB679"/>
<path d="M7.57912 5.8413L6.41412 7.0003H7.00012L7.57912 5.8413Z" fill="#DCB679"/>
<path d="M14 4H9.43203L8.42603 5H14V14.984C14 14.984 15 15 15 14V5C15 4 14 4 14 4Z" fill="#DCB679"/>
<path d="M6 1H4L5.987 3H3.5C2.119 3 1 4.119 1 5.5C1 6.065 1.194 6.581 1.511 7C1.968 7.604 2.685 8 3.5 8H4V7H3.5C2.673 7 2 6.327 2 5.5C2 4.673 2.673 4 3.5 4H6.013L4 6H6L7 5H7.006L8.5 3.516L6 1Z" fill="#00529C"/>
<path d="M8.42582 5L7.57882 5.841L6.99982 7H6.41382H4.99982V9H3.49982C3.32882 9 3.16582 8.966 2.99982 8.942V10H10.9998L13.9998 15V5H8.42582Z" fill="#F0EFF1"/>
</svg>
