<svg width="16" height="16" viewBox="0 0 16 16" fill="none" xmlns="http://www.w3.org/2000/svg">
<path d="M14 3V16H0V7H2.004L2.01 3H4V2H5.01C5.424 0.836 6.717 0 8.02 0C9.325 0 10.598 0.836 11.01 2H12V3H14Z" fill="#F6F6F6"/>
<path d="M1 15H7V8H1V15ZM2 9H6V14H2V9ZM11 4V3H10.01C10.01 1.896 9.115 1 8.01 1C6.906 1 6.01 1.896 6.01 3H5V4H3V7H4V5H12V14H8V15H13V4H11ZM8.02 4C7.469 4 7.01 3.553 7.01 3C7.01 2.447 7.459 2 8.01 2C8.563 2 9.01 2.447 9.01 3C9.01 3.553 8.572 4 8.02 4Z" fill="#424242"/>
<path d="M12 5V14H8V7H4V5H12ZM6 9H2V14H6V9ZM8.01 4C8.563 4 9.063 3.553 9.063 3C9.063 2.447 8.563 1.953 8.01 1.953C7.458 1.953 6.922 2.447 6.922 3C6.922 3.553 7.458 4 8.01 4V4Z" fill="#F0EFF1"/>
</svg>
