<svg width="16" height="16" viewBox="0 0 16 16" fill="none" xmlns="http://www.w3.org/2000/svg">
<path d="M15.903 2.918C15.838 2.59846 15.7218 2.29152 15.559 2.009C15.3845 1.70631 15.14 1.44983 14.846 1.261C14.5128 1.04921 14.1247 0.940022 13.73 0.947H13.697V0H11V1.365C10.868 1.27356 10.7261 1.19741 10.577 1.138C10.2647 1.01848 9.93238 0.959755 9.598 0.965C9.425 0.965 9.247 0.981 9.047 1.015C8.885 1.045 8.728 1.081 8.578 1.125C8.43253 1.16957 8.28936 1.2213 8.149 1.28C8.093 1.306 8.047 1.33 8 1.355V1H3.478C2.81381 1.00132 2.17733 1.26638 1.70851 1.73688C1.2397 2.20738 0.976938 2.84481 0.978 3.509V3.565L0 2.586V6.914L1.086 8H0V16H12V14H14V6.927C14.253 6.881 14.495 6.807 14.707 6.678C15.016 6.492 15.275 6.236 15.478 5.916C15.659 5.635 15.794 5.305 15.882 4.932C16.0333 4.26993 16.0404 3.58308 15.903 2.918V2.918ZM5 6V4H7.156C7.143 4.035 7.121 4.065 7.109 4.102C7.0356 4.34691 6.99887 4.60133 7 4.857C7 5.135 7.044 5.4 7.13 5.648C7.173 5.773 7.229 5.889 7.293 6H5V6Z" fill="#F6F6F6"/>
<path d="M4.99998 8H12V13H13V7H4.99998V8ZM10.63 2.361C10.5151 2.22951 10.3694 2.12851 10.206 2.067C10.0116 1.99494 9.80527 1.96033 9.59798 1.965C9.47898 1.965 9.35698 1.977 9.22998 1.998C9.10763 2.02024 8.98648 2.04861 8.86698 2.083C8.76166 2.11381 8.65816 2.15054 8.55698 2.193C8.48317 2.22483 8.41224 2.26297 8.34498 2.307V3.075C8.50298 2.943 8.68598 2.84 8.88898 2.762C9.09298 2.684 9.30198 2.645 9.51598 2.645C9.72898 2.645 9.89298 2.708 10.01 2.831C10.126 2.956 10.184 3.155 10.184 3.431L9.15398 3.585C8.94898 3.611 8.77398 3.662 8.62798 3.736C8.49033 3.80274 8.3686 3.89822 8.27098 4.016C8.17699 4.12758 8.10688 4.25725 8.06498 4.397C8.02033 4.5462 7.99841 4.70127 7.99998 4.857C7.99998 5.027 8.02498 5.18 8.07398 5.32C8.11756 5.45576 8.1913 5.57989 8.28966 5.68311C8.38803 5.78632 8.50848 5.86594 8.64198 5.916C8.78098 5.973 8.93898 6 9.11998 6C9.34998 6 9.55098 5.947 9.72398 5.84C9.9065 5.72453 10.0574 5.56541 10.163 5.377H10.177V5.906H10.962V3.469C10.962 3.231 10.935 3.018 10.879 2.832C10.8298 2.65934 10.7449 2.4989 10.63 2.361V2.361ZM10.184 4.381C10.184 4.512 10.163 4.633 10.125 4.746C10.0892 4.8539 10.0332 4.95401 9.95998 5.041C9.88762 5.12763 9.79683 5.19701 9.69424 5.24406C9.59165 5.29112 9.47984 5.31467 9.36698 5.313C9.2845 5.31408 9.2025 5.30019 9.12498 5.272C9.05728 5.24839 8.99536 5.21069 8.9433 5.1614C8.89124 5.1121 8.85023 5.05232 8.82298 4.986C8.79549 4.91663 8.78157 4.84262 8.78198 4.768C8.7815 4.68986 8.79057 4.61195 8.80898 4.536C8.82644 4.46889 8.86009 4.40708 8.90698 4.356C8.9614 4.29786 9.02798 4.25244 9.10198 4.223C9.18498 4.19 9.29098 4.162 9.42198 4.145L10.183 4.036V4.381H10.184ZM3.14098 12.257C3.06698 12.2864 3.0004 12.3319 2.94598 12.39C2.89925 12.4412 2.86562 12.503 2.84798 12.57C2.82872 12.6458 2.8193 12.7238 2.81998 12.802C2.81998 12.88 2.83398 12.952 2.86098 13.021C2.88732 13.0878 2.92803 13.1479 2.98023 13.1971C3.03242 13.2464 3.09481 13.2836 3.16298 13.306C3.35271 13.3711 3.56029 13.36 3.74198 13.275C3.83999 13.2268 3.92711 13.1591 3.99798 13.076C4.07118 12.989 4.12717 12.8889 4.16298 12.781C4.20098 12.668 4.22198 12.547 4.22198 12.416V12.07L3.46098 12.179C3.35159 12.1922 3.24417 12.2184 3.14098 12.257V12.257Z" fill="#424242"/>
<path d="M1 9V15H11V9H1ZM5 13.941H4.215V13.412H4.201C4.09478 13.6003 3.94362 13.7593 3.761 13.875C3.588 13.982 3.387 14.035 3.158 14.035C2.977 14.035 2.819 14.008 2.679 13.951C2.54589 13.8998 2.42571 13.8199 2.327 13.717C2.23046 13.6132 2.15686 13.4902 2.111 13.356C2.01689 13.0556 2.01376 12.7341 2.102 12.432C2.14417 12.2887 2.21599 12.1559 2.31281 12.0422C2.40963 11.9285 2.52928 11.8365 2.664 11.772C2.811 11.698 2.985 11.647 3.189 11.62L4.219 11.466C4.219 11.191 4.161 10.991 4.045 10.866C3.928 10.743 3.764 10.68 3.551 10.68C3.337 10.68 3.128 10.719 2.924 10.797C2.72683 10.871 2.54307 10.9767 2.38 11.11V10.342C2.431 10.307 2.501 10.27 2.593 10.229C2.80884 10.1386 3.0343 10.0732 3.265 10.034C3.395 10.012 3.517 10 3.636 10C3.87 10 4.074 10.033 4.244 10.102C4.415 10.169 4.557 10.268 4.668 10.396C4.778 10.525 4.862 10.683 4.917 10.867C4.973 11.052 5 11.265 5 11.503V13.941V13.941ZM10 11.003C9.87281 10.911 9.73392 10.8363 9.587 10.781C9.43345 10.724 9.27078 10.6955 9.107 10.697C8.937 10.697 8.778 10.726 8.629 10.784C8.48312 10.8406 8.35113 10.9279 8.242 11.04C8.134 11.152 8.048 11.29 7.985 11.454C7.91988 11.6344 7.88803 11.8252 7.891 12.017C7.891 12.214 7.919 12.391 7.973 12.549C8.028 12.707 8.107 12.841 8.211 12.95C8.314 13.059 8.44 13.144 8.588 13.204C8.82271 13.293 9.07758 13.3148 9.324 13.267C9.48661 13.2294 9.64408 13.1723 9.793 13.097C9.868 13.058 9.937 13.017 9.999 12.972V13.745C9.864 13.822 9.709 13.884 9.532 13.93C9.357 13.977 9.149 14 8.908 14C8.615 14 8.352 13.952 8.117 13.856C7.89138 13.7663 7.68701 13.6304 7.517 13.457C7.35013 13.284 7.22076 13.0783 7.137 12.853C7.0466 12.6113 7.00151 12.355 7.004 12.097C7.004 11.779 7.052 11.49 7.149 11.231C7.245 10.972 7.383 10.751 7.564 10.568C7.744 10.385 7.962 10.243 8.218 10.143C8.474 10.042 8.761 9.992 9.079 9.992C9.181 9.992 9.279 9.998 9.372 10.011C9.45837 10.0225 9.54414 10.0382 9.629 10.058C9.708 10.077 9.779 10.097 9.843 10.12C9.906 10.142 9.96 10.165 10.002 10.187V11.003H10ZM14.926 3.127C14.8833 2.91241 14.8063 2.7061 14.698 2.516C14.6021 2.34762 14.4669 2.20491 14.304 2.1C14.1322 1.99357 13.933 1.94002 13.731 1.946C13.608 1.946 13.497 1.964 13.395 1.998C13.2954 2.03208 13.2016 2.08133 13.117 2.144C13.0321 2.20756 12.9561 2.28223 12.891 2.366C12.823 2.4573 12.7625 2.55395 12.71 2.655H12.697V1H12V5.887H12.697V5.402H12.71C12.754 5.484 12.805 5.56 12.861 5.631C12.918 5.701 12.98 5.764 13.052 5.817C13.1243 5.86984 13.2047 5.91069 13.29 5.938C13.3844 5.96775 13.483 5.98227 13.582 5.981C13.813 5.981 14.016 5.928 14.191 5.821C14.367 5.715 14.514 5.567 14.634 5.378C14.7619 5.17082 14.8542 4.94367 14.907 4.706C14.969 4.445 15 4.166 15 3.861C15.001 3.61442 14.9762 3.36842 14.926 3.127V3.127ZM14.222 4.469C14.183 4.649 14.127 4.797 14.054 4.914C13.99 5.02366 13.8992 5.11521 13.79 5.18C13.6916 5.23718 13.5803 5.26862 13.4665 5.27141C13.3528 5.27421 13.2401 5.24827 13.139 5.196C13.0461 5.14479 12.9652 5.07419 12.902 4.989C12.833 4.8965 12.7809 4.79258 12.748 4.682C12.7095 4.55868 12.6903 4.43017 12.691 4.301V3.795C12.691 3.625 12.712 3.469 12.752 3.33C12.792 3.191 12.848 3.072 12.92 2.971C12.9866 2.87483 13.0745 2.79541 13.177 2.739C13.277 2.684 13.387 2.657 13.508 2.657C13.6231 2.65465 13.7366 2.68307 13.837 2.73933C13.9374 2.79559 14.021 2.87764 14.079 2.977C14.145 3.082 14.195 3.207 14.229 3.354C14.263 3.501 14.281 3.665 14.281 3.848C14.281 4.082 14.262 4.289 14.222 4.469Z" fill="#424242"/>
<path d="M1.979 3.5L2 6L1 5V6.5L2.5 8L4 6.5V5L3 6L2.978 3.5C2.978 3.225 3.203 3 3.478 3H7V2H3.478C2.651 2 1.979 2.673 1.979 3.5Z" fill="#00539C"/>
<path d="M4.66799 10.396C4.55309 10.2645 4.40742 10.1635 4.24399 10.102C4.04971 10.0295 3.84332 9.99484 3.63599 10C3.51699 10 3.39499 10.012 3.26799 10.033C3.14588 10.0548 3.02503 10.0831 2.90599 10.118C2.80068 10.1488 2.69718 10.1855 2.59599 10.228C2.52182 10.2594 2.45055 10.2972 2.38299 10.341V11.109C2.54099 10.978 2.72399 10.875 2.92699 10.796C3.13099 10.718 3.33999 10.679 3.55399 10.679C3.76699 10.679 3.93099 10.742 4.04799 10.865C4.16399 10.99 4.22199 11.189 4.22199 11.465L3.19199 11.619C3.00969 11.6398 2.8322 11.6912 2.66699 11.771C2.53316 11.8367 2.41423 11.9292 2.31756 12.0427C2.2209 12.1562 2.14855 12.2884 2.10499 12.431C2.06035 12.5805 2.03844 12.7359 2.03999 12.892C2.03999 13.062 2.06499 13.214 2.11399 13.355C2.15771 13.4906 2.2315 13.6145 2.32986 13.7175C2.42822 13.8206 2.5486 13.9 2.68199 13.95C2.82199 14.007 2.97999 14.034 3.16099 14.034C3.39099 14.034 3.59199 13.981 3.76399 13.874C3.93699 13.768 4.08299 13.614 4.20399 13.411H4.21799V13.94H4.99999V11.502C4.99999 11.264 4.97299 11.051 4.91699 10.865C4.86734 10.6931 4.78255 10.5334 4.66799 10.396V10.396ZM4.22199 12.415C4.22199 12.546 4.20099 12.667 4.16299 12.78C4.12719 12.8879 4.07119 12.988 3.99799 13.075C3.92545 13.1613 3.8346 13.2304 3.73203 13.2773C3.62946 13.3242 3.51775 13.3477 3.40499 13.346C3.32251 13.3471 3.24052 13.3332 3.16299 13.305C3.09382 13.2807 3.03047 13.2422 2.97699 13.192C2.92625 13.1438 2.88666 13.0851 2.86099 13.02C2.83343 12.9506 2.81951 12.8766 2.81999 12.802C2.81952 12.7239 2.82859 12.6459 2.84699 12.57C2.86445 12.5029 2.8981 12.4411 2.94499 12.39C2.99941 12.3319 3.066 12.2864 3.13999 12.257C3.22299 12.224 3.32999 12.196 3.45999 12.179L4.22099 12.07V12.415H4.22199ZM9.62699 10.057C9.44731 10.0131 9.26296 9.9913 9.07799 9.992C8.75999 9.992 8.47399 10.042 8.21699 10.143C7.9713 10.2366 7.74835 10.3815 7.56299 10.568C7.38299 10.751 7.24399 10.972 7.14799 11.231C7.04839 11.5087 6.99928 11.802 7.00299 12.097C7.00299 12.368 7.04799 12.62 7.13599 12.853C7.22499 13.086 7.35099 13.287 7.51599 13.457C7.68099 13.627 7.88099 13.761 8.11599 13.856C8.35199 13.952 8.61599 14 8.90799 14C9.14899 14 9.35699 13.977 9.53299 13.931C9.70999 13.885 9.86499 13.823 9.99999 13.746V12.973C9.79554 13.1129 9.56654 13.213 9.32499 13.268C9.07858 13.3158 8.8237 13.294 8.58899 13.205C8.44656 13.1484 8.31798 13.0617 8.21199 12.951C8.10469 12.836 8.0235 12.6993 7.97399 12.55C7.917 12.3785 7.88928 12.1987 7.89199 12.018C7.89199 11.806 7.92399 11.619 7.98599 11.455C8.04899 11.291 8.13499 11.153 8.24299 11.041C8.35199 10.929 8.48099 10.844 8.62999 10.785C8.77899 10.726 8.93799 10.698 9.10799 10.698C9.27999 10.698 9.441 10.726 9.588 10.782C9.736 10.838 9.873 10.912 10.001 11.004V10.187C9.88116 10.1309 9.75582 10.0873 9.62699 10.057Z" fill="#F0EFF1"/>
</svg>
