<svg width="16" height="16" viewBox="0 0 16 16" fill="none" xmlns="http://www.w3.org/2000/svg">
<path d="M8 14.9893C7.728 14.9893 7.458 14.9703 7.194 14.9393L6.576 14.8673L5.918 13.0183L4.145 13.8613L3.657 13.4733C3.234 13.1383 2.85 12.7543 2.515 12.3323L2.129 11.8433L2.971 10.0733L1.12 9.4143L1.049 8.7943C1.019 8.5293 1 8.2613 1 7.9893C1 7.7173 1.019 7.4493 1.049 7.1843L1.12 6.5643L2.971 5.9063L2.129 4.1343L2.516 3.6463C2.852 3.2213 3.236 2.8373 3.658 2.5043L4.146 2.1183L5.918 2.9603L6.576 1.1093L7.196 1.0383C7.46 1.0083 7.728 0.9893 8 0.9893C8.273 0.9893 8.542 1.0083 8.807 1.0393L9.426 1.1103L10.084 2.9603L11.855 2.1183L12.344 2.5043C12.766 2.8393 13.15 3.2233 13.485 3.6473L13.871 4.1353L13.029 5.9063L14.879 6.5643L14.95 7.1823C14.981 7.4473 15 7.7163 15 7.9893C15 8.2623 14.981 8.5313 14.95 8.7963L14.879 9.4153L13.029 10.0723L13.871 11.8433L13.485 12.3313C13.152 12.7533 12.768 13.1373 12.344 13.4733L11.855 13.8613L10.084 13.0183L9.427 14.8643L8.812 14.9383C8.544 14.9703 8.275 14.9893 8 14.9893Z" fill="#F6F6F6"/>
<path d="M8 5.4286C6.58 5.4286 5.429 6.5796 5.429 7.9996C5.429 9.4206 6.58 10.5716 8 10.5716C9.42 10.5716 10.571 9.4206 10.571 7.9996C10.571 6.5796 9.42 5.4286 8 5.4286ZM12.04 9.3736C11.98 9.5506 11.912 9.7226 11.83 9.8886L12.701 11.7216C12.414 12.0846 12.086 12.4126 11.722 12.7006L9.888 11.8286C9.723 11.9116 9.551 11.9796 9.374 12.0406L8.692 13.9566C8.465 13.9836 8.234 13.9996 8 13.9996C7.766 13.9996 7.536 13.9836 7.309 13.9576L6.628 12.0416C6.451 11.9806 6.278 11.9126 6.112 11.8296L4.278 12.7006C3.915 12.4126 3.587 12.0846 3.299 11.7216L4.17 9.8886C4.088 9.7226 4.02 9.5506 3.96 9.3736L2.043 8.6916C2.017 8.4646 2 8.2346 2 7.9996C2 7.7656 2.017 7.5356 2.043 7.3086L3.96 6.6266C4.02 6.4486 4.088 6.2776 4.17 6.1116L3.299 4.2776C3.587 3.9156 3.915 3.5866 4.278 3.2996L6.112 4.1706C6.278 4.0876 6.45 4.0196 6.628 3.9596L7.309 2.0426C7.536 2.0166 7.766 1.9996 8 1.9996C8.234 1.9996 8.465 2.0166 8.692 2.0436L9.374 3.9596C9.551 4.0206 9.723 4.0886 9.888 4.1706L11.722 3.2996C12.086 3.5866 12.414 3.9156 12.701 4.2786L11.83 6.1116C11.912 6.2776 11.98 6.4486 12.04 6.6266L13.957 7.3086C13.983 7.5356 14 7.7656 14 7.9996C14 8.2346 13.983 8.4646 13.957 8.6916L12.04 9.3736Z" fill="#424242"/>
<path d="M9.28572 8C9.28572 8.71 8.71072 9.286 7.99972 9.286C7.28972 9.286 6.71472 8.71 6.71472 8C6.71472 7.29 7.28972 6.714 7.99972 6.714C8.71072 6.714 9.28572 7.29 9.28572 8Z" fill="#424242"/>
<path d="M8.00002 9.2857C7.29002 9.2857 6.71402 8.7097 6.71402 7.9997C6.71402 7.2897 7.29002 6.7147 8.00002 6.7147C8.71002 6.7147 9.28602 7.2897 9.28602 7.9997C9.28602 8.7097 8.71002 9.2857 8.00002 9.2857ZM8.00002 5.4287C6.58002 5.4287 5.42902 6.5797 5.42902 7.9997C5.42902 9.4197 6.58002 10.5717 8.00002 10.5717C9.42002 10.5717 10.571 9.4197 10.571 7.9997C10.571 6.5797 9.42002 5.4287 8.00002 5.4287Z" fill="#EFEFF0"/>
</svg>
